<svg xmlns="http://www.w3.org/2000/svg" xmlns:xlink="http://www.w3.org/1999/xlink" viewBox="0 0 216 46.63"><defs><style>.cls-1{fill:none;}.cls-2{clip-path:url(#clip-path);}.cls-3{fill:#d11f5c;}.cls-4{clip-path:url(#clip-path-2);}</style><clipPath id="clip-path" transform="translate(0 0)"><rect class="cls-1" width="216" height="46.63"/></clipPath><clipPath id="clip-path-2" transform="translate(0 0)"><rect class="cls-1" width="216" height="46.63"/></clipPath></defs><g id="Layer_2" data-name="Layer 2"><g id="Layer_1-2" data-name="Layer 1"><g id="RavenDB_Logo" data-name="RavenDB Logo"><g class="cls-2"><rect class="cls-3" x="55.39" y="7.67" width="2.36" height="2.52"/><rect class="cls-3" x="55.77" y="12.04" width="2.26" height="2.4"/><rect class="cls-3" x="63.53" y="13.19" width="2.53" height="2.7"/><rect class="cls-3" x="37.82" y="8.86" width="1.72" height="1.83"/><rect class="cls-3" x="43.39" y="8.77" width="1.89" height="2.01"/><polygon class="cls-3" points="65.08 7.33 62.22 7.33 62.22 8.61 60.14 8.61 60.14 11.28 62.63 11.28 62.63 10.37 65.08 10.37 65.08 7.33"/><rect class="cls-3" x="35.23" y="4.55" width="1.43" height="1.53"/><rect class="cls-3" x="66.81" y="17.59" width="2.34" height="2.5"/><rect class="cls-3" x="59.45" y="16.19" width="2.03" height="2.17"/><rect class="cls-3" x="51.59" y="6.44" width="1.92" height="2.05"/><rect class="cls-3" x="49.73" y="10.12" width="2.16" height="2.3"/><rect class="cls-3" x="69.44" y="14.17" width="1.44" height="1.54"/><rect class="cls-3" x="45.33" y="12.5" width="1.35" height="1.44"/><polygon class="cls-3" points="60.05 5.72 60.05 4.28 58.94 4.28 58.94 2.89 57.3 2.89 57.3 4.64 58.69 4.64 58.69 5.72 60.05 5.72"/><rect class="cls-3" x="47.41" y="6.14" width="1.35" height="1.44"/><rect class="cls-3" x="28.37" y="2.13" width="1.35" height="1.44"/><rect class="cls-3" x="52.55" y="15.26" width="1.35" height="1.44"/><rect class="cls-3" x="41.94" y="2.81" width="1.52" height="1.63"/><rect class="cls-3" x="50.53" y="1.89" width="1.35" height="1.44"/><g class="cls-4"><path class="cls-3" d="M56.14.19A35,35,0,0,1,63.51,5h1.81v.86h1.87V8.71h2.25v1.41h-2.6V13h2.72V11.09h.68v1h1.59v3H73v2.77h-.75v.93h-.61A65.65,65.65,0,0,1,73.86,29.6C75.18,27.07,81.57,2.24,56.14.19" transform="translate(0 0)"/><path class="cls-3" d="M155.09,26.9h-1.8V21.17h15.16a17.34,17.34,0,0,1,6.05,1,15,15,0,0,1,4.75,2.74,12.6,12.6,0,0,1,3.1,4.06,11.06,11.06,0,0,1,1.12,4.9,10.37,10.37,0,0,1-1.22,5,13.17,13.17,0,0,1-3.32,4,15.7,15.7,0,0,1-5,2.71,18.87,18.87,0,0,1-6.17,1H155.09ZM162,41.62h5.8a11.22,11.22,0,0,0,3.57-.58,10,10,0,0,0,3-1.61A8.08,8.08,0,0,0,176.45,37a6.29,6.29,0,0,0,.78-3.1,5,5,0,0,0-.78-2.65A8.69,8.69,0,0,0,174.37,29a12.42,12.42,0,0,0-3-1.71,14,14,0,0,0-3.57-.94H162Z" transform="translate(0 0)"/><path class="cls-3" d="M212.23,33.21a4.32,4.32,0,0,1,1.42.68,4.85,4.85,0,0,1,1.22,1.25,6.67,6.67,0,0,1,.87,1.88,7.89,7.89,0,0,1-.44,5.24,6.25,6.25,0,0,1-2.14,2.24A11.55,11.55,0,0,1,209.92,46a14.18,14.18,0,0,1-4.06.56h-19V36.39H185V30.68h1.87V21.14h18.31a16.22,16.22,0,0,1,4.88.64,10.15,10.15,0,0,1,3.31,1.66A5.08,5.08,0,0,1,215,25.53a6.8,6.8,0,0,1,.12,4.59,5,5,0,0,1-.81,1.44,5.56,5.56,0,0,1-1.07,1,8.18,8.18,0,0,1-1.05.65m-7.53,8.2a7.16,7.16,0,0,0,1.71-.2,5,5,0,0,0,1.39-.56,2.86,2.86,0,0,0,.92-.82,1.54,1.54,0,0,0,.32-.93,2.1,2.1,0,0,0-1.24-1.79,5.86,5.86,0,0,0-3.1-.75H194.4v5Zm-10.3-10.2h9.66a4.54,4.54,0,0,0,1.35-.22,5.24,5.24,0,0,0,1.24-.58,3.37,3.37,0,0,0,.9-.8,1.45,1.45,0,0,0,.34-.91,1.4,1.4,0,0,0-.34-.88,3,3,0,0,0-.9-.78,5.18,5.18,0,0,0-1.24-.55,4.85,4.85,0,0,0-1.35-.2H194.4Z" transform="translate(0 0)"/><path class="cls-3" d="M84,28.63c-.37.38-.74.74-1.12,1.09-.1.1-.21.18-.32.28-.26.24-.53.48-.8.7-.12.11-.25.2-.37.3s-.49.41-.74.59-.26.2-.39.29l-.7.51-.37.25-.7.47-.34.21-.68.42-.29.16-.69.39-.24.12-.68.35a22.41,22.41,0,0,1-3.88,1.56l-.83-1.55h0L63.37,20.86H55.59L69.1,46.63h5.21s3.45-6.4,6.38-11.86l.73-1.36a.56.56,0,0,1,0-.08L84,28.63" transform="translate(0 0)"/><path class="cls-3" d="M44.21,21.21h0L35.87,37.68H33.42v5.73l-.78,2.18-8.19-9.92a17.58,17.58,0,0,0,2.46-.9h0c.26-.13.5-.25.74-.39l.15-.08.55-.34.18-.12.47-.35.17-.13c.19-.16.38-.33.55-.5a5.92,5.92,0,0,0,1.85-4.32A5.51,5.51,0,0,0,30.86,26a8.51,8.51,0,0,0-2.1-2.5,11.82,11.82,0,0,0-3.43-1.9,13.52,13.52,0,0,0-4.68-.75H1.9v9.7H0v5.79H1.9V46.63H9.68V36.32h6.45l8.32,10.31H39.77l1.93-3.22H54.48l1.19,3.22H63.9l-12-25.42Zm-21.35,8.3a3.3,3.3,0,0,1-.87.83,5.32,5.32,0,0,1-1.25.58,4.69,4.69,0,0,1-1.43.22H9.68V26h9.63a5,5,0,0,1,1.43.22,5.34,5.34,0,0,1,1.25.59,3.56,3.56,0,0,1,.87.8,1.55,1.55,0,0,1,.33.93,1.62,1.62,0,0,1-.33,1m21.35,8.17,1.38-2.91,2.48-5.22,3.87,8.13Z" transform="translate(0 0)"/><path class="cls-3" d="M94,21.14a18.65,18.65,0,0,0-5.46,3.92v5.62h-1.9v5.71h1.9V46.63h28.65V41.55h-21V36.39H112V30.68H96.19V26.29h21V21.14H94Z" transform="translate(0 0)"/><polygon class="cls-3" points="142.23 21.21 142.23 26.9 144.09 26.9 144.09 34.77 144.09 37.31 141.45 34.77 141.45 34.77 127.34 21.21 127.34 21.21 119.92 21.21 119.92 34.77 119.92 46.6 127.34 46.6 127.34 34.77 127.34 34.77 127.34 30.5 144.09 46.6 151.55 46.6 151.55 34.77 151.55 21.21 142.23 21.21"/><path class="cls-3" d="M99.55,11.68A12.35,12.35,0,0,0,92.22,7.6a20.08,20.08,0,0,0-8.54.5C77.68.24,64.44,0,64.44,0A19.88,19.88,0,0,1,74,6.05L75.55,6l-1,.85A13.42,13.42,0,0,1,75.36,8L78,7.54,76.15,9.46c4.46,15.07-3.26,24.36-3.26,24.36,6.27-2.17,14.71-11.58,21.39-15,6.45-3.34,12.43-.09,12-1.3-.83-2.65-6.78-5.8-6.78-5.8m-3.82.91a3,3,0,0,1-2-.85c-.59-.6-.39-.84.18-.77a6,6,0,0,1,3.3,1.54,5.41,5.41,0,0,1-1.48.08" transform="translate(0 0)"/></g></g></g></g></g></svg>